<mxfile host="app.diagrams.net" modified="2022-08-15T09:09:55.979Z" agent="5.0 (Windows NT 10.0; Win64; x64) AppleWebKit/537.36 (KHTML, like Gecko) Chrome/104.0.5112.81 Safari/537.36 Edg/104.0.1293.54" etag="70GklCh4bX46Zg_FIwO9" version="20.2.3" type="github">
  <diagram id="H3O-LNX6H-VDbd5dW60C" name="第 1 页">
    <mxGraphModel dx="1813" dy="1744" grid="1" gridSize="10" guides="1" tooltips="1" connect="1" arrows="1" fold="1" page="1" pageScale="1" pageWidth="827" pageHeight="1169" math="0" shadow="0">
      <root>
        <mxCell id="0" />
        <mxCell id="1" parent="0" />
        <mxCell id="WofrI5HJTd11R4k4WThL-1" value="BotController" style="rounded=0;whiteSpace=wrap;html=1;" vertex="1" parent="1">
          <mxGeometry x="620" y="150" width="120" height="60" as="geometry" />
        </mxCell>
        <mxCell id="WofrI5HJTd11R4k4WThL-2" value="WowProcess" style="rounded=0;whiteSpace=wrap;html=1;" vertex="1" parent="1">
          <mxGeometry x="10" y="10" width="120" height="60" as="geometry" />
        </mxCell>
        <mxCell id="WofrI5HJTd11R4k4WThL-3" value="WowScreen" style="rounded=0;whiteSpace=wrap;html=1;" vertex="1" parent="1">
          <mxGeometry x="10" y="130" width="120" height="60" as="geometry" />
        </mxCell>
        <mxCell id="WofrI5HJTd11R4k4WThL-4" value="NpcNameFinder" style="rounded=0;whiteSpace=wrap;html=1;" vertex="1" parent="1">
          <mxGeometry x="220" y="-30" width="120" height="60" as="geometry" />
        </mxCell>
        <mxCell id="WofrI5HJTd11R4k4WThL-5" value="DataFrameConfiguration" style="rounded=0;whiteSpace=wrap;html=1;" vertex="1" parent="1">
          <mxGeometry x="-5" y="230" width="150" height="60" as="geometry" />
        </mxCell>
        <mxCell id="WofrI5HJTd11R4k4WThL-6" value="&amp;lt;&amp;lt;include&amp;gt;&amp;gt;" style="edgeStyle=none;html=1;endArrow=open;verticalAlign=bottom;dashed=1;labelBackgroundColor=none;rounded=0;entryX=0.5;entryY=1;entryDx=0;entryDy=0;exitX=0.5;exitY=0;exitDx=0;exitDy=0;" edge="1" parent="1" source="WofrI5HJTd11R4k4WThL-5" target="WofrI5HJTd11R4k4WThL-3">
          <mxGeometry x="-0.6438" y="-8" width="160" relative="1" as="geometry">
            <mxPoint x="450" y="180" as="sourcePoint" />
            <mxPoint x="350" y="350" as="targetPoint" />
            <mxPoint as="offset" />
          </mxGeometry>
        </mxCell>
        <mxCell id="WofrI5HJTd11R4k4WThL-7" value="config.json&lt;br&gt;（DataFrames）" style="rounded=0;whiteSpace=wrap;html=1;" vertex="1" parent="1">
          <mxGeometry x="10" y="330" width="120" height="60" as="geometry" />
        </mxCell>
        <mxCell id="WofrI5HJTd11R4k4WThL-8" value="&amp;lt;&amp;lt;include&amp;gt;&amp;gt;" style="edgeStyle=none;html=1;endArrow=open;verticalAlign=bottom;dashed=1;labelBackgroundColor=none;rounded=0;entryX=0.5;entryY=0;entryDx=0;entryDy=0;exitX=0.5;exitY=1;exitDx=0;exitDy=0;" edge="1" parent="1" source="WofrI5HJTd11R4k4WThL-5" target="WofrI5HJTd11R4k4WThL-7">
          <mxGeometry x="0.2877" y="-16" width="160" relative="1" as="geometry">
            <mxPoint x="555" y="210" as="sourcePoint" />
            <mxPoint x="540" y="170" as="targetPoint" />
            <mxPoint y="-1" as="offset" />
          </mxGeometry>
        </mxCell>
        <mxCell id="WofrI5HJTd11R4k4WThL-9" value="AddonReader" style="rounded=0;whiteSpace=wrap;html=1;" vertex="1" parent="1">
          <mxGeometry x="200" y="140" width="120" height="60" as="geometry" />
        </mxCell>
        <mxCell id="WofrI5HJTd11R4k4WThL-10" value="&amp;lt;&amp;lt;include&amp;gt;&amp;gt;" style="edgeStyle=none;html=1;endArrow=open;verticalAlign=bottom;dashed=1;labelBackgroundColor=none;rounded=0;exitX=0;exitY=0.5;exitDx=0;exitDy=0;entryX=1;entryY=0.5;entryDx=0;entryDy=0;" edge="1" parent="1" source="WofrI5HJTd11R4k4WThL-9" target="WofrI5HJTd11R4k4WThL-3">
          <mxGeometry x="-0.6438" y="-8" width="160" relative="1" as="geometry">
            <mxPoint x="555" y="210" as="sourcePoint" />
            <mxPoint x="380" y="200" as="targetPoint" />
            <mxPoint as="offset" />
          </mxGeometry>
        </mxCell>
        <mxCell id="WofrI5HJTd11R4k4WThL-11" value="&amp;lt;&amp;lt;include&amp;gt;&amp;gt;" style="edgeStyle=none;html=1;endArrow=open;verticalAlign=bottom;dashed=1;labelBackgroundColor=none;rounded=0;entryX=1;entryY=0.5;entryDx=0;entryDy=0;exitX=0.5;exitY=1;exitDx=0;exitDy=0;" edge="1" parent="1" source="WofrI5HJTd11R4k4WThL-9" target="WofrI5HJTd11R4k4WThL-7">
          <mxGeometry x="-0.0272" y="-6" width="160" relative="1" as="geometry">
            <mxPoint x="565" y="220" as="sourcePoint" />
            <mxPoint x="550" y="180" as="targetPoint" />
            <mxPoint as="offset" />
          </mxGeometry>
        </mxCell>
        <mxCell id="WofrI5HJTd11R4k4WThL-12" value="&amp;lt;&amp;lt;include&amp;gt;&amp;gt;" style="edgeStyle=none;html=1;endArrow=open;verticalAlign=bottom;dashed=1;labelBackgroundColor=none;rounded=0;exitX=0.5;exitY=1;exitDx=0;exitDy=0;entryX=1;entryY=0.5;entryDx=0;entryDy=0;" edge="1" parent="1" source="WofrI5HJTd11R4k4WThL-4" target="WofrI5HJTd11R4k4WThL-3">
          <mxGeometry x="-0.6438" y="-8" width="160" relative="1" as="geometry">
            <mxPoint x="280" y="310" as="sourcePoint" />
            <mxPoint x="140" y="140" as="targetPoint" />
            <mxPoint as="offset" />
          </mxGeometry>
        </mxCell>
        <mxCell id="WofrI5HJTd11R4k4WThL-13" value="&amp;lt;&amp;lt;include&amp;gt;&amp;gt;" style="edgeStyle=none;html=1;endArrow=open;verticalAlign=bottom;dashed=1;labelBackgroundColor=none;rounded=0;entryX=0.5;entryY=0;entryDx=0;entryDy=0;exitX=0.5;exitY=1;exitDx=0;exitDy=0;" edge="1" parent="1" source="WofrI5HJTd11R4k4WThL-4" target="WofrI5HJTd11R4k4WThL-9">
          <mxGeometry x="-0.1586" y="-26" width="160" relative="1" as="geometry">
            <mxPoint x="340" y="50" as="sourcePoint" />
            <mxPoint x="110" y="170" as="targetPoint" />
            <mxPoint as="offset" />
          </mxGeometry>
        </mxCell>
        <mxCell id="WofrI5HJTd11R4k4WThL-14" value="PlayerReader" style="rounded=0;whiteSpace=wrap;html=1;" vertex="1" parent="1">
          <mxGeometry x="510" y="-20" width="120" height="60" as="geometry" />
        </mxCell>
        <mxCell id="WofrI5HJTd11R4k4WThL-15" value="&amp;lt;&amp;lt;include&amp;gt;&amp;gt;" style="edgeStyle=none;html=1;endArrow=open;verticalAlign=bottom;dashed=1;labelBackgroundColor=none;rounded=0;exitX=0.5;exitY=0;exitDx=0;exitDy=0;entryX=0;entryY=0.5;entryDx=0;entryDy=0;" edge="1" parent="1" source="WofrI5HJTd11R4k4WThL-9" target="WofrI5HJTd11R4k4WThL-14">
          <mxGeometry x="-0.0272" y="-6" width="160" relative="1" as="geometry">
            <mxPoint x="219.03999999999996" y="332.02" as="sourcePoint" />
            <mxPoint x="190" y="380" as="targetPoint" />
            <mxPoint as="offset" />
          </mxGeometry>
        </mxCell>
        <mxCell id="WofrI5HJTd11R4k4WThL-16" value="ActionFactory" style="rounded=0;whiteSpace=wrap;html=1;" vertex="1" parent="1">
          <mxGeometry x="410" y="150" width="120" height="60" as="geometry" />
        </mxCell>
        <mxCell id="WofrI5HJTd11R4k4WThL-17" value="&amp;lt;&amp;lt;include&amp;gt;&amp;gt;" style="edgeStyle=none;html=1;endArrow=open;verticalAlign=bottom;dashed=1;labelBackgroundColor=none;rounded=0;exitX=0;exitY=0.5;exitDx=0;exitDy=0;entryX=1;entryY=0.5;entryDx=0;entryDy=0;" edge="1" parent="1" source="WofrI5HJTd11R4k4WThL-16" target="WofrI5HJTd11R4k4WThL-9">
          <mxGeometry x="-0.4432" y="-6" width="160" relative="1" as="geometry">
            <mxPoint x="420" y="310" as="sourcePoint" />
            <mxPoint x="110" y="170" as="targetPoint" />
            <mxPoint x="1" as="offset" />
          </mxGeometry>
        </mxCell>
        <mxCell id="WofrI5HJTd11R4k4WThL-18" value="&amp;lt;&amp;lt;include&amp;gt;&amp;gt;" style="edgeStyle=none;html=1;endArrow=open;verticalAlign=bottom;dashed=1;labelBackgroundColor=none;rounded=0;exitX=0.5;exitY=0;exitDx=0;exitDy=0;entryX=1;entryY=0.5;entryDx=0;entryDy=0;" edge="1" parent="1" source="WofrI5HJTd11R4k4WThL-16" target="WofrI5HJTd11R4k4WThL-2">
          <mxGeometry x="-0.4432" y="-6" width="160" relative="1" as="geometry">
            <mxPoint x="450" y="220" as="sourcePoint" />
            <mxPoint x="280" y="310" as="targetPoint" />
            <mxPoint x="1" as="offset" />
          </mxGeometry>
        </mxCell>
        <mxCell id="WofrI5HJTd11R4k4WThL-19" value="&amp;lt;&amp;lt;include&amp;gt;&amp;gt;" style="edgeStyle=none;html=1;endArrow=open;verticalAlign=bottom;dashed=1;labelBackgroundColor=none;rounded=0;exitX=0;exitY=0.5;exitDx=0;exitDy=0;entryX=0.5;entryY=1;entryDx=0;entryDy=0;" edge="1" parent="1" source="WofrI5HJTd11R4k4WThL-16" target="WofrI5HJTd11R4k4WThL-4">
          <mxGeometry x="-0.4432" y="-6" width="160" relative="1" as="geometry">
            <mxPoint x="450" y="160" as="sourcePoint" />
            <mxPoint x="140" y="50" as="targetPoint" />
            <mxPoint x="1" as="offset" />
          </mxGeometry>
        </mxCell>
      </root>
    </mxGraphModel>
  </diagram>
</mxfile>
